<?xml version="1.0" ?><svg viewBox="0 0 96 96" xmlns="http://www.w3.org/2000/svg"><defs><style>.cls-1{fill:#2ad3c0;}</style></defs><title/><g data-name="Your Icons" id="Your_Icons"><path class="cls-1" d="M31.74,46.39,48,73.23,64.26,46.39,48,56.68Zm26.41,6.24L48,69.37,37.85,52.63l9.08,5.74,1.07.68,1.07-.68Z"/><path class="cls-1" d="M64.64,44.86,48,22.77,31.36,44.86,48,55.06ZM48,26.1,61.72,44.3,48,52.71,34.28,44.3Z"/><path class="cls-1" d="M48,92.41A44.41,44.41,0,1,1,92.41,48,44.46,44.46,0,0,1,48,92.41ZM48,5.59A42.41,42.41,0,1,0,90.41,48,42.46,42.46,0,0,0,48,5.59Z"/></g></svg>